<svg xmlns="http://www.w3.org/2000/svg" xmlns:xlink="http://www.w3.org/1999/xlink" width="599" height="132"><defs><path id="a" d="M0 0h599v132H0z"/></defs><clipPath id="b"><use xlink:href="#a" overflow="visible"/></clipPath><path clip-path="url(#b)" clip-rule="evenodd" fill="none" stroke="#FFF" stroke-miterlimit="10" d="M99.184 15.471c36.825 19.951 29.121 13.88 31.24 50.774 0 39.901 1.75 30.609-31.24 50.774-36.828 19.951-27.373 16.726-62.482 0C-.125 97.07 7.58 103.139 5.462 66.245c0-39.901-1.752-30.607 31.24-50.774 36.827-19.95 27.374-16.725 62.482 0M70.488 53.715v33.714c0 1.438.402 2.379 1.208 2.824.807.446 1.969.669 3.486.669 1.566 0 2.751-.223 3.558-.669.807-.445 1.21-1.386 1.21-2.824V68.4l38.778 21.482a6.606 6.606 0 0 0 2.171.816c.782.149.378.327 1.991.327 1.044 0 1.95-.289 2.705-.855.759-.569 1.139-1.425 1.139-2.565 0-1.484-.781-2.589-2.276-3.419L86.78 63.271l37.996-19.997c1.52-.792 2.278-1.93 2.278-3.417 0-1.141-.38-1.996-1.139-2.565s-1.66-.856-2.704-.856c-1.613 0-2.81.076-3.594.224a6.603 6.603 0 0 0-2.171.816L79.951 58.588V39.931c0-1.437-.404-2.379-1.21-2.825-.807-.445-1.992-.669-3.558-.669-1.518 0-2.68.224-3.486.669-.647.357-1.032 1.034-1.161 2.028L44.972 80.56 19.591 39.071c-1.102-1.747-2.557-2.618-4.359-2.618-2.686 0-4.026 1.696-4.026 5.084v45.75c0 1.448.311 2.396.938 2.844.625.447 1.527.672 2.706.672 1.211 0 2.131-.225 2.755-.672.626-.447.94-1.396.94-2.844V51.854l22.068 36.107c.59.998 1.241 1.723 1.958 2.17.719.447 1.613.672 2.679.672.957 0 1.765-.225 2.428-.672s1.304-1.172 1.931-2.17l20.879-34.246z"/><path clip-path="url(#b)" clip-rule="evenodd" fill="none" stroke="#FFF" stroke-miterlimit="10" d="M82.636 125.919c-18.296 9.347-17.467 4.663-45.934-8.899C-.125 97.07 7.58 103.139 5.462 66.246c0-25.234-.697-30.794 7.133-36.569 18.294-9.346 17.468-4.662 45.934 8.899 3.468 1.879 6.541 3.527 9.266 5L44.972 80.562 19.591 39.07c-1.102-1.744-2.557-2.617-4.359-2.617-2.686 0-4.026 1.695-4.026 5.084v45.75c0 1.445.311 2.393.938 2.843.625.447 1.527.672 2.706.672 1.211 0 2.131-.225 2.755-.672.626-.45.94-1.397.94-2.843V51.853l22.068 36.109c.59.997 1.241 1.719 1.958 2.169.719.447 1.613.672 2.679.672.957 0 1.765-.225 2.428-.672.663-.45 1.304-1.172 1.931-2.169l20.88-34.247V87.43c0 1.438.402 2.379 1.208 2.825.807.444 1.969.667 3.486.667 1.566 0 2.751-.223 3.558-.667.807-.446 1.21-1.388 1.21-2.825V68.4l9.317 5.162c.062 4.193.13 9.331.502 15.787 0 25.236.694 30.795-7.134 36.57m-2.685-75.343v8.012l5.709-3.215c-1.327-1.601-3.164-3.115-5.709-4.797m8.704 11.709l-1.875.987 2.157 1.197a30.113 30.113 0 0 0-.282-2.184m131.154-45.222c.68-.756 1.433-1.295 2.261-1.614.829-.319 1.752-.478 2.772-.478 3.143 0 4.716 1.356 4.716 4.066v36.59c0 1.156-.363 1.912-1.084 2.273-.722.358-1.785.538-3.187.538-1.4 0-2.462-.179-3.185-.538-.723-.361-1.084-1.117-1.084-2.273v-28.34l-25.423 28.877c-.722.798-1.465 1.375-2.229 1.735-.768.358-1.701.538-2.804.538-1.232 0-2.262-.179-3.091-.538-.827-.361-1.583-.937-2.263-1.735l-25.486-28.877v28.34c0 1.156-.361 1.912-1.084 2.273-.722.358-1.784.538-3.185.538-1.36 0-2.401-.179-3.124-.538-.722-.361-1.082-1.117-1.082-2.273v-36.59c0-2.71 1.55-4.066 4.65-4.066 2.081 0 3.759.698 5.034 2.092l29.312 33.184 29.566-33.184zm32.813 41.136c-12.02 0-18.03-3.468-18.03-10.405v-3.167c0-6.937 6.01-10.404 18.03-10.404h27.273v-.059c0-1.156-.797-2.064-2.39-2.721-1.593-.658-4.195-.986-7.805-.986h-5.99c-.977 0-1.613-.25-1.912-.747-.297-.499-.447-1.245-.447-2.242 0-1.037.15-1.804.447-2.302.298-.498.935-.746 1.912-.746h6.244c12.022 0 18.034 3.467 18.034 10.402v12.973c0 6.937-6.011 10.405-18.034 10.405h-17.332zM269.7 52.16c3.567 0 6.159-.428 7.772-1.285 1.615-.856 2.423-1.883 2.423-3.08v-7.772h-27.018c-3.568 0-6.159.419-7.773 1.256-1.615.838-2.42 1.875-2.42 3.109v3.408c0 1.197.805 2.224 2.42 3.08 1.614.857 4.205 1.285 7.773 1.285H269.7zm44.922-27.741c.975 0 1.602.258 1.879.777.276.518.415 1.275.415 2.271 0 .997-.139 1.744-.415 2.242-.277.498-.904.747-1.879.747h-4.972c-3.143 0-5.332.379-6.563 1.137-1.23.756-1.848 1.813-1.848 3.168v20.866c0 1.156-.34 1.912-1.021 2.273-.679.358-1.698.538-3.058.538-1.358 0-2.367-.179-3.026-.538-.659-.361-.987-1.117-.987-2.273V34.762c0-3.467 1.412-6.059 4.236-7.773s6.913-2.57 12.265-2.57h4.974zm23.066 33.78c-12.022 0-18.032-3.468-18.032-10.405V34.821c0-6.935 6.01-10.402 18.032-10.402h31.858c.976 0 1.613.248 1.912.746.298.498.445 1.265.445 2.302 0 .997-.147 1.744-.445 2.242-.299.498-.937.747-1.912.747H337.94c-3.566 0-6.157.419-7.772 1.255-1.613.839-2.422 1.873-2.422 3.11v12.973c0 1.197.809 2.224 2.422 3.08 1.615.857 4.206 1.285 7.772 1.285h31.797c.978 0 1.604.249 1.88.747.277.5.414 1.247.414 2.242 0 .999-.137 1.753-.414 2.273-.276.518-.902.778-1.88.778h-32.049zm47.534-2.572c0 1.156-.342 1.912-1.021 2.273-.679.358-1.699.538-3.058.538-1.36 0-2.367-.179-3.027-.538-.657-.361-.987-1.117-.987-2.273V27.406c0-1.155.33-1.911.987-2.271.66-.358 1.667-.537 3.027-.537 1.358 0 2.379.179 3.058.537.679.36 1.021 1.116 1.021 2.271v28.221zm-9.114-37.309c0-1.275.394-2.209 1.18-2.808.786-.598 2.071-.899 3.855-.899 1.782 0 3.068.301 3.854.899.786.599 1.18 1.533 1.18 2.808s-.394 2.214-1.18 2.813c-.785.599-2.071.896-3.854.896-1.784 0-3.069-.297-3.855-.896s-1.18-1.538-1.18-2.813m18.862 40.12c-1.36 0-2.369-.179-3.027-.538-.657-.361-.985-1.117-.985-2.273V34.821c0-6.935 6.011-10.402 18.029-10.402h13.893c12.02 0 18.032 3.467 18.032 10.402v20.806c0 1.156-.339 1.912-1.021 2.273-.679.358-1.699.538-3.058.538-1.36 0-2.369-.179-3.026-.538-.66-.361-.988-1.117-.988-2.273V34.821c0-1.237-.808-2.271-2.42-3.11-1.617-.836-4.206-1.255-7.776-1.255h-13.38c-3.567 0-6.159.419-7.773 1.255-1.614.839-2.42 1.873-2.42 3.11v20.806c0 1.156-.341 1.912-1.021 2.273-.681.359-1.699.538-3.059.538m-235.249 29.11l33.58-16.98a6.362 6.362 0 0 1 1.944-.659c.701-.117 1.773-.179 3.218-.179.934 0 1.74.229 2.42.688s1.02 1.147 1.02 2.064c0 1.196-.679 2.11-2.038 2.749L165.84 91.315l35.172 16.742c1.357.636 2.038 1.553 2.038 2.747 0 .918-.339 1.605-1.02 2.064-.68.457-1.487.688-2.42.688-1.445 0-2.517-.059-3.218-.179a6.365 6.365 0 0 1-1.943-.659l-34.728-17.277v15.306c0 1.155-.36 1.912-1.083 2.271-.721.36-1.783.539-3.186.539-1.36 0-2.399-.179-3.122-.539-.723-.358-1.083-1.115-1.083-2.271V72.54c0-1.155.361-1.913 1.083-2.271.722-.36 1.762-.539 3.122-.539 1.402 0 2.465.179 3.186.539.723.358 1.083 1.116 1.083 2.271v15.008zm93.029-8.251c1.36 0 2.369.179 3.028.537.656.358.987 1.116.987 2.272v20.809c0 6.935-6.012 10.401-18.034 10.401h-15.227c-12.022 0-18.033-3.467-18.033-10.401V82.106c0-1.156.339-1.914 1.02-2.272s1.701-.537 3.059-.537c1.359 0 2.368.179 3.027.537.657.358.987 1.116.987 2.272v20.809c0 1.234.807 2.27 2.421 3.107s4.206 1.257 7.775 1.257h14.719c3.567 0 6.159-.419 7.772-1.257 1.614-.838 2.422-1.873 2.422-3.107V82.106c0-1.156.338-1.914 1.018-2.272s1.7-.537 3.059-.537m30.969.238c.976 0 1.602.261 1.879.778s.415 1.275.415 2.272-.138 1.743-.415 2.24c-.277.5-.903.746-1.879.746h-4.971c-3.144 0-5.331.38-6.562 1.139-1.232.758-1.848 1.814-1.848 3.168v20.868c0 1.155-.341 1.912-1.021 2.271-.68.36-1.698.539-3.058.539-1.358 0-2.367-.179-3.026-.539-.658-.358-.987-1.115-.987-2.271V89.879c0-3.466 1.412-6.059 4.235-7.772 2.827-1.714 6.915-2.571 12.267-2.571h4.971zm14.527 41.015c0 1.159-.34 1.916-1.02 2.276-.68.355-1.699.537-3.059.537-1.359 0-2.369-.182-3.026-.537-.66-.36-.989-1.117-.989-2.276V89.94c0-6.938 6.012-10.405 18.033-10.405h15.293c12.02 0 18.032 3.468 18.032 10.405v12.975c0 6.935-6.013 10.401-18.032 10.401h-25.232v7.234zm24.978-13.271c3.568 0 6.158-.419 7.772-1.257 1.615-.838 2.422-1.873 2.422-3.107V89.94c0-1.196-.807-2.224-2.422-3.08-1.614-.857-4.204-1.288-7.772-1.288H308.44c-3.568 0-6.159.431-7.774 1.288-1.613.856-2.42 1.884-2.42 3.08v17.339h24.978zm31.795 3.468c0 1.155-.34 1.912-1.02 2.271-.681.36-1.699.539-3.06.539s-2.367-.179-3.026-.539c-.658-.358-.986-1.115-.986-2.271V82.526c0-1.156.328-1.914.986-2.274.659-.356 1.666-.536 3.026-.536s2.379.18 3.06.536c.68.36 1.02 1.118 1.02 2.274v28.221zm-9.113-37.309c0-1.275.393-2.212 1.181-2.811.783-.599 2.068-.897 3.853-.897 1.786 0 3.071.299 3.857.897.784.599 1.176 1.535 1.176 2.811s-.392 2.211-1.176 2.81c-.786.598-2.071.897-3.857.897-1.784 0-3.069-.3-3.853-.897-.788-.6-1.181-1.535-1.181-2.81m22.619 26.426v3.051c0 1.194.809 2.221 2.422 3.079 1.613.854 4.206 1.285 7.772 1.285h7.33c.977 0 1.604.247 1.877.746.278.499.417 1.245.417 2.242s-.139 1.755-.417 2.272c-.273.52-.9.776-1.877.776h-7.584c-12.021 0-18.032-3.467-18.032-10.401V89.94c0-6.938 6.012-10.405 18.032-10.405h14.72c6.372 0 10.97.857 13.794 2.571 2.826 1.714 4.239 4.325 4.239 7.834v6.873c0 1.159-.235 1.954-.701 2.394-.469.438-1.508.657-3.123.657h-38.869zm0-5.918h34.599V89.94c0-1.396-.795-2.472-2.39-3.229-1.591-.759-4.192-1.139-7.804-1.139h-14.21c-3.566 0-6.159.422-7.772 1.259-1.613.835-2.422 1.87-2.422 3.109v4.006zm68.245 17.578c-.766 1.354-2.294 2.032-4.589 2.032-1.146 0-2.133-.17-2.962-.507-.829-.34-1.437-.888-1.816-1.645L412.75 82.585c-.258-.399-.384-.778-.384-1.137 0-.677.402-1.205 1.211-1.583.807-.378 1.868-.569 3.185-.569 1.869 0 3.015.457 3.443 1.377l11.915 25.11 13.379-24.155c.511-.917 1.051-1.534 1.625-1.854.572-.319 1.412-.479 2.517-.479.638 0 1.157.049 1.562.148.404.103.743.24 1.019.421.276.178.521.416.734.715.212.301.424.649.638 1.048l12.869 24.155 12.172-25.11c.425-.92 1.593-1.377 3.502-1.377 1.319 0 2.381.191 3.188.569.805.378 1.211.906 1.211 1.583 0 .358-.128.737-.382 1.137l-15.038 28.819c-.383.757-.988 1.305-1.815 1.645-.828.337-1.793.507-2.898.507-1.063 0-2.008-.159-2.839-.479-.827-.318-1.434-.837-1.814-1.554l-12.232-23.317-12.748 23.319zm52.566-23.02c0-2.789 1.275-4.982 3.822-6.576 2.551-1.595 6.33-2.393 11.343-2.393h8.729c.978 0 1.615.25 1.912.747.296.5.446 1.266.446 2.304 0 .997-.15 1.743-.446 2.24-.297.5-.935.746-1.912.746h-8.794c-2.419 0-4.205.271-5.352.809-1.146.539-1.721 1.267-1.721 2.183v1.554c0 .92.596 1.656 1.785 2.214 1.188.559 3.057.837 5.606.837h14.084c5.944 0 10.236.799 12.869 2.392 2.634 1.596 3.951 3.826 3.951 6.697v1.913c0 1.435-.34 2.719-1.021 3.855-.679 1.136-1.738 2.092-3.183 2.87-1.446.779-3.314 1.375-5.608 1.795-2.294.416-5.034.626-8.22.626h-25.807c-.976 0-1.613-.248-1.909-.747-.299-.498-.447-1.264-.447-2.302 0-.997.148-1.743.447-2.242.296-.499.934-.746 1.909-.746h27.019c1.697 0 3.11-.071 4.236-.21 1.125-.139 2.016-.339 2.675-.599.66-.26 1.115-.566 1.369-.926.258-.36.384-.775.384-1.257v-2.151c0-.478-.126-.897-.384-1.255-.254-.36-.7-.68-1.335-.957-.638-.279-1.499-.489-2.583-.629-1.083-.141-2.453-.209-4.109-.209H504.82c-5.139 0-9.005-.786-11.596-2.36-2.592-1.573-3.889-3.737-3.889-6.487v-1.736zm59.195 4.364l26.124-12.915c.552-.278 1.178-.456 1.881-.537.699-.078 1.707-.119 3.026-.119.849 0 1.581.179 2.198.537.616.358.924.919.924 1.676 0 .557-.172.995-.511 1.315-.34.318-.764.599-1.274.836l-25.614 12.615 26.062 12.379c1.23.597 1.848 1.435 1.848 2.509 0 .877-.373 1.495-1.116 1.854-.743.36-1.857.539-3.345.539-1.36 0-2.432-.101-3.218-.3-.786-.197-1.349-.398-1.688-.598l-25.296-12.555v10.643c0 1.155-.34 1.912-1.021 2.271-.679.36-1.697.539-3.058.539s-2.369-.179-3.027-.539c-.657-.358-.986-1.115-.986-2.271V72.54c0-1.155.329-1.913.986-2.271.658-.36 1.667-.539 3.027-.539s2.379.179 3.058.539c.681.358 1.021 1.116 1.021 2.271v20.328zm46.96 17.879c0 1.155-.341 1.912-1.021 2.271-.679.36-1.697.539-3.058.539-1.359 0-2.369-.179-3.025-.539-.659-.358-.989-1.115-.989-2.271V82.526c0-1.156.33-1.914.989-2.274.656-.356 1.666-.536 3.025-.536 1.36 0 2.379.18 3.058.536.68.36 1.021 1.118 1.021 2.274v28.221zm-9.111-37.309c0-1.275.393-2.212 1.178-2.811.784-.599 2.071-.897 3.855-.897 1.785 0 3.069.299 3.854.897.787.599 1.182 1.535 1.182 2.811s-.395 2.211-1.182 2.81c-.785.598-2.069.897-3.854.897-1.784 0-3.071-.3-3.855-.897-.786-.6-1.178-1.535-1.178-2.81"/><use xlink:href="#a" overflow="visible" fill="none" stroke="#FFF" stroke-miterlimit="10"/></svg>