<svg version="1.2" baseProfile="tiny" xmlns="http://www.w3.org/2000/svg" width="127" height="132" overflow="scroll"><path fill="none" stroke="#000" stroke-miterlimit="10" d="M95.184 15.471c36.825 19.951 29.121 13.88 31.24 50.774 0 39.901 1.75 30.609-31.24 50.774-36.828 19.951-27.372 16.726-62.481 0C-4.125 97.07 3.58 103.139 1.462 66.245c0-39.901-1.752-30.607 31.24-50.774 36.827-19.95 27.374-16.725 62.482 0M66.488 53.715v33.714c0 1.438.401 2.379 1.207 2.824.807.446 1.969.669 3.486.669 1.566 0 2.752-.223 3.559-.669.807-.445 1.211-1.386 1.211-2.824V68.4l38.777 21.482a6.606 6.606 0 0 0 2.171.816c.782.149.378.327 1.991.327 1.044 0 1.949-.289 2.704-.855.759-.569 1.139-1.425 1.139-2.565 0-1.484-.781-2.589-2.276-3.419L82.779 63.271l37.996-19.997c1.52-.792 2.279-1.93 2.279-3.417 0-1.141-.381-1.996-1.139-2.565-.76-.569-1.66-.856-2.704-.856-1.613 0-2.81.076-3.594.224s-1.505.42-2.171.816L75.951 58.588V39.931c0-1.437-.404-2.379-1.211-2.825-.807-.445-1.992-.669-3.559-.669-1.518 0-2.933-.067-3.486.669-.495.658-.743 1.173-1.16 2.028L40.972 80.56 15.591 39.071c-1.102-1.747-2.557-2.618-4.359-2.618-2.686 0-4.026 1.696-4.026 5.084v45.75c0 1.448.311 2.396.938 2.844.625.447 1.527.672 2.706.672 1.211 0 2.131-.225 2.755-.672.626-.447.94-1.396.94-2.844V51.854l22.068 36.107c.59.998 1.241 1.723 1.958 2.17.719.447 1.613.672 2.679.672.957 0 1.765-.225 2.428-.672s1.304-1.172 1.931-2.17l20.879-34.246z"/><path fill="none" stroke="#000" stroke-miterlimit="10" d="M78.636 125.919c-18.296 9.347-17.467 4.663-45.934-8.899C-4.125 97.07 3.58 103.139 1.462 66.246c0-25.234-.697-30.794 7.133-36.569 18.294-9.346 17.468-4.662 45.934 8.899 3.468 1.879 6.822 3.808 9.547 5.282L41.253 80.843l-25.38-41.492c-1.102-1.744-2.557-2.617-4.359-2.617-2.686 0-4.307 1.414-4.307 4.803l.281 46.032c0 1.445.029 2.111.656 2.562.625.447 1.527.672 2.706.672 1.211 0 2.131-.225 2.755-.672.626-.45.94-1.397.94-2.843V51.853l22.068 36.109c.59.997 1.241 1.719 1.958 2.169.719.447 1.613.672 2.679.672.957 0 1.765-.225 2.428-.672.663-.45 1.304-1.172 1.931-2.169L66.77 53.997l-.282 33.433c0 1.438.401 2.379 1.207 2.825.807.444 1.969.667 3.486.667 1.566 0 2.752-.223 3.559-.667.807-.446 1.211-1.388 1.211-2.825V68.4l9.316 5.162c.063 4.193.131 9.331.502 15.787.001 25.236.696 30.795-7.133 36.57m-2.685-75.343v8.012l5.709-3.215c-1.328-1.601-3.164-3.115-5.709-4.797m8.703 11.709l-1.875.987 2.158 1.197a30.096 30.096 0 0 0-.283-2.184"/></svg>